<svg xmlns="http://www.w3.org/2000/svg" enable-background="new 0 0 20 20" viewBox="0 0 20 20"><linearGradient id="a" x1="4.002" x2="18.002" y1="11.813" y2="11.813" gradientUnits="userSpaceOnUse"><stop offset="0" stop-color="#708afb"/><stop offset="1" stop-color="#426de8"/></linearGradient><path fill="url(#a)" d="M15.3,10.3c-0.2-1.5-1.5-2.7-3-2.7c-1.4,0-2.6,1-2.9,2.3C9.2,9.8,9,9.8,8.8,9.8    c-1.3,0-2.4,0.9-2.6,2.2c0,0,0,0,0,0C5,12,4,12.8,4,14s1,2,2.2,2h8.8c1.7,0,3.1-1.2,3.1-2.9C18,11.6,16.8,10.5,15.3,10.3z"/><linearGradient id="b" x1="7.986" x2="9.002" y1="5" y2="5" gradientUnits="userSpaceOnUse"><stop offset="0" stop-color="#ffc80b"/><stop offset="1" stop-color="#e89318"/></linearGradient><path fill="url(#b)" d="M8.5,6L8.5,6C8.2,6,8,5.8,8,5.5v-1C8,4.2,8.2,4,8.5,4h0C8.8,4,9,4.2,9,4.5v1    C9,5.8,8.8,6,8.5,6z"/><linearGradient id="c" x1="2.946" x2="4.789" y1="7.526" y2="7.526" gradientUnits="userSpaceOnUse"><stop offset="0" stop-color="#ffc80b"/><stop offset="1" stop-color="#e89318"/></linearGradient><path fill="url(#c)" d="M4.7,8.1L4.7,8.1C4.6,8.3,4.2,8.4,4,8.2L3.2,7.7C2.9,7.5,2.9,7.2,3,7l0,0    c0.2-0.2,0.5-0.3,0.7-0.2l0.8,0.5C4.8,7.5,4.9,7.8,4.7,8.1z"/><linearGradient id="d" x1="5.072" x2="6.559" y1="5.674" y2="5.674" gradientUnits="userSpaceOnUse"><stop offset="0" stop-color="#ffc80b"/><stop offset="1" stop-color="#e89318"/></linearGradient><path fill="url(#d)" d="M6.3,6.6L6.3,6.6c0.2-0.1,0.3-0.4,0.2-0.7L6,5C5.9,4.8,5.6,4.7,5.3,4.8l0,0    C5.1,4.9,5,5.2,5.1,5.5l0.5,0.9C5.7,6.6,6.1,6.7,6.3,6.6z"/><linearGradient id="e" x1="10.655" x2="12.202" y1="5.874" y2="5.874" gradientUnits="userSpaceOnUse"><stop offset="0" stop-color="#ffc80b"/><stop offset="1" stop-color="#e89318"/></linearGradient><path fill="url(#e)" d="M10.9,6.7L10.9,6.7c-0.2-0.2-0.3-0.5-0.2-0.7l0.5-0.8C11.4,5,11.7,4.9,12,5l0,0    c0.2,0.2,0.3,0.5,0.2,0.7l-0.5,0.8C11.4,6.8,11.1,6.9,10.9,6.7z"/><linearGradient id="f" x1="1.994" x2="3.994" y1="10.5" y2="10.5" gradientUnits="userSpaceOnUse"><stop offset="0" stop-color="#ffc80b"/><stop offset="1" stop-color="#e89318"/></linearGradient><path fill="url(#f)" d="M2,10.5L2,10.5C2,10.2,2.2,10,2.5,10h1C3.8,10,4,10.2,4,10.5v0C4,10.8,3.8,11,3.5,11h-1    C2.2,11,2,10.8,2,10.5z"/><linearGradient id="g" x1="5.002" x2="10.017" y1="9.092" y2="9.092" gradientUnits="userSpaceOnUse"><stop offset="0" stop-color="#ffc80b"/><stop offset="1" stop-color="#e89318"/></linearGradient><path fill="url(#g)" d="M5.5,11.1C6,9.8,7.3,8.8,8.7,8.8C9,8.2,9.5,7.7,10,7.4C9.6,7.1,9,7,8.5,7     C6.6,7,5,8.6,5,10.5c0,0.2,0,0.5,0.1,0.7C5.2,11.1,5.3,11.1,5.5,11.1z"/></svg>