<svg xmlns="http://www.w3.org/2000/svg" viewBox="0 0 64 64"><path fill="#FBB03B" d="M33.187 16.274c-1.249-3.942-4.06-7.282-7.711-9.163a.998.998 0 1 0-1.449 1.022 14.79 14.79 0 0 1-.194 5.108c-1.491 6.872-7.66 11.86-14.668 11.86-.994 0-1.995-.102-2.977-.303a14.448 14.448 0 0 1-2.093-.611 1.001 1.001 0 0 0-1.31 1.196 15.642 15.642 0 0 0 6.082 8.757.995.995 0 0 0 1.035.072A10.773 10.773 0 0 1 14.88 33H24a1 1 0 0 0 1-1v-4.12c0-4.738 3.03-8.898 7.54-10.352a1 1 0 0 0 .647-1.254z"/><path fill="#E6E6E6" d="M49.12 30H49v-2.12C49 20.778 43.222 15 36.12 15h-.24C28.778 15 23 20.778 23 27.88V31h-8.12C7.778 31 2 36.778 2 43.88v.24C2 51.222 7.778 57 14.88 57h34.24C56.222 57 62 51.222 62 44.12v-1.24C62 35.778 56.222 30 49.12 30z"/><path fill="#CCC" d="M56.86 32.609A12.793 12.793 0 0 1 58 37.88v1.24C58 46.222 52.222 52 45.12 52H10.88a12.8 12.8 0 0 1-7.74-2.609C5.159 53.869 9.657 57 14.88 57h34.24C56.222 57 62 51.222 62 44.12v-1.24c0-4.196-2.026-7.917-5.14-10.271z"/></svg>