<svg xmlns="http://www.w3.org/2000/svg" enable-background="new 0 0 1000 1000" viewBox="0 0 1000 1000"><linearGradient id="a" x1="101.056" x2="910.2" y1="819.185" y2="819.185" gradientUnits="userSpaceOnUse"><stop offset=".032" stop-color="#faaf87"/><stop offset="1" stop-color="#ffd9a9"/></linearGradient><path fill="url(#a)" d="M909.1,1084.77c1.1-32.04,2.21-97.6-1.12-202.93c-5.03-158.07-35.54-203.68-78.94-244.91
	c-40.47-38.47-185.26-64.09-218.58-83.33c0,0-8.91,71.66-106.06,69.43c-97.15,2.23-106.05-69.43-106.05-69.43
	c-33.32,19.24-178.11,44.86-218.58,83.33c-43.39,41.23-71.47,86.84-76.49,244.91c-3.33,105.33-2.22,170.89-1.11,202.93H909.1z"/><linearGradient id="b" x1="505.454" x2="505.454" y1="636.88" y2="349.6" gradientUnits="userSpaceOnUse"><stop offset="0" stop-color="#fca768"/><stop offset="1" stop-color="#ffd9a9"/></linearGradient><rect width="213.26" height="201.17" x="398.83" y="509.81" fill="url(#b)"/><linearGradient id="c" x1="496.59" x2="513.87" y1="122.462" y2="649.502" gradientUnits="userSpaceOnUse"><stop offset="0" stop-color="#fca768"/><stop offset="1" stop-color="#ffd9a9"/></linearGradient><path fill="url(#c)" d="M665.06,216.19C660.48,114.16,539.41,99.88,508.37,97.92c-4.58-0.29-7.22-0.33-7.22-0.33h-0.16
		c0,0-158.65,1.5-163.88,118.59c-2.34,52.08-0.07,103.53,4.06,146.81c3,32.49,7.08,60.32,10.97,80.23
		c2.5,12.97,4.94,22.58,6.95,27.93c3.39,9.16,10.15,20.37,18.62,31.87c17.37,23.72,41.92,48.69,59.32,59.05
		c14.04,8.34,47.62,14.7,63.97,13.85h0.16c2.14,0.1,4.58,0.1,7.22-0.03c17.56-0.82,44.55-6.55,56.75-13.82
		c17.37-10.36,41.91-35.33,59.32-59.05c8.47-11.5,15.19-22.71,18.62-31.87c2.01-5.34,4.45-14.96,6.95-27.93
		c3.86-19.91,7.94-47.74,11-80.23C665.1,319.75,667.41,268.26,665.06,216.19z"/><linearGradient id="d" x1="101.056" x2="910.2" y1="819.185" y2="819.185" gradientUnits="userSpaceOnUse"><stop offset="0" stop-color="#f76415"/><stop offset="1" stop-color="#fd9714"/></linearGradient><path fill="url(#d)" d="M909.1,1084.77c1.1-32.04,2.21-97.6-1.12-202.93c-5.03-158.07-35.54-203.68-78.94-244.91
		c-40.47-38.47-185.26-64.09-218.58-83.33c0,0-8.91,71.66-106.06,69.43c-97.15,2.23-106.05-69.43-106.05-69.43
		c-33.32,19.24-178.11,44.86-218.58,83.33c-43.39,41.23-71.47,86.84-76.49,244.91c-3.33,105.33-2.22,170.89-1.11,202.93H909.1z"/><linearGradient id="e" x1="334.496" x2="664.328" y1="304.683" y2="304.683" gradientUnits="userSpaceOnUse"><stop offset="0"/><stop offset="1" stop-color="#111"/></linearGradient><path fill="url(#e)" d="M664.33,277.09l-0.44-20.39l-19.9-0.17c0,0-20.3-6.04-45.48-7.84c-25.16-1.83-60.59,1.79-70.86,4.68
		c-10.27,2.91-28.7,3.28-28.7,3.28s-18.45-0.37-28.7-3.28c-10.27-2.89-45.71-6.51-70.87-4.68c-25.17,1.79-45.49,7.84-45.49,7.84l0,0
		l-19.39,0.17l0.7,21.66l21.72,1.32c2.71,1.12,6.32,3.19,6.93,6.52c0.99,5.44,2.21,35.15,14.68,54.95
		c7.22,11.56,18.44,20.43,44.02,19.98c19.54-0.37,39.44-8.17,51.11-29.46c11.62-21.24,12.15-38.74,15.44-42.37
		c3.34-3.63,7.86-4.74,9.85-4.36c1.98-0.38,6.5,0.73,9.81,4.36c3.33,3.63,3.86,21.13,15.47,42.37
		c11.67,21.29,31.56,29.09,51.11,29.46c25.57,0.45,36.79-8.42,44.04-19.98c12.47-19.8,13.68-49.51,14.66-54.95
		c0.6-3.27,4.08-5.33,6.76-6.45L664.33,277.09z M447.02,346.47c-13.49,8.88-40.59,8.14-52.28,1.22
		c-10.54-6.29-17.74-26.63-20.15-42.98c-1.64-11.04-6.67-33.01,1.09-37.58c14.69-8.66,38.12-9.24,38.12-9.24
		c12.06-1.06,35.32,0.5,42.49,3.27c10.1,3.93,20.85,9.8,19.88,33.71C474.95,324.5,462,336.63,447.02,346.47z M622.68,304.71
		c-2.39,16.36-9.61,36.7-20.13,42.98c-11.71,6.91-38.8,7.65-52.29-1.22c-14.97-9.84-27.93-21.97-29.14-51.61
		c-0.99-23.91,9.78-29.78,19.87-33.71c7.18-2.77,30.43-4.33,42.5-3.27c0,0,23.4,0.58,38.12,9.24
		C629.36,271.69,624.34,293.66,622.68,304.71z"/><linearGradient id="f" x1="342" x2="649.106" y1="499.687" y2="499.687" gradientUnits="userSpaceOnUse"><stop offset="0"/><stop offset="1" stop-color="#111"/></linearGradient><path fill="url(#f)" d="M649.09,429.92L649.09,429.92c-0.4-6.43-8.26-9.28-12.7-4.61c-8.48,8.94-20.06,19.57-29.29,22.25
		c-15.31,4.44-97.15-14.37-109.89-17.35c-1.1-0.26-2.23-0.26-3.33,0C481.15,433.19,399.32,452,384,447.56
		c-9.23-2.67-20.81-13.31-29.29-22.25c-4.43-4.67-12.3-1.83-12.7,4.6l0,0c-0.02,0.26-0.02,0.51-0.01,0.77
		c0.25,5.79,3.67,73.17,31.26,102.29c25.12,26.51,83.15,41.44,121.89,43.38c0.27,0.01,0.53,0.01,0.8,0
		c38.74-1.95,96.78-16.87,121.89-43.38c27.59-29.12,31.01-96.51,31.26-102.29C649.11,430.43,649.11,430.18,649.09,429.92z
		 M549.03,481.89l-24.04,2.09l-24.97-1.97l-24.97,1.97l-24.04-2.09l-5.6-15.87l54.61-4.38l54.61,4.38L549.03,481.89z"/></svg>