<svg xmlns="http://www.w3.org/2000/svg" data-name="Layer 1" viewBox="0 0 32 32"><path fill="#f39c12" d="M14.89,6.12a.83.83,0,0,1-.83-.83V.83a.83.83,0,1,1,1.67,0V5.29A.83.83,0,0,1,14.89,6.12Z"/><path fill="#fdcb6e" fill-rule="evenodd" d="M27.13,15.3A11.13,11.13,0,0,0,16,4.17H13.77A11.13,11.13,0,0,0,2.64,15.3v10a2.23,2.23,0,0,0,2.23,2.23h20a2.23,2.23,0,0,0,2.23-2.23v-10Z"/><path fill="#f39c12" fill-rule="evenodd" d="M19.34,27.55h-8.9A4.45,4.45,0,0,0,14.89,32h0a4.45,4.45,0,0,0,4.45-4.45Z"/><path fill="#f39c12" d="M29.36,8.86a4.46,4.46,0,0,1-4.45,4.45,4.17,4.17,0,0,1-1.27-.19,4.45,4.45,0,0,1,0-8.52,4.17,4.17,0,0,1,1.27-.19,4.46,4.46,0,0,1,4.45,4.45Z"/></svg>