<svg xmlns="http://www.w3.org/2000/svg" viewBox="0 0 48 48"><path d="M19,46h-.29A10,10,0,0,1,12,28.87V9A7,7,0,0,1,26,9V28.87A10,10,0,0,1,19,46ZM19,4a5,5,0,0,0-5,5V29.31a1,1,0,0,1-.33.74A8,8,0,0,0,11,35.89,8.14,8.14,0,0,0,18.77,44a8,8,0,0,0,5.56-13.95,1,1,0,0,1-.33-.74V9A5,5,0,0,0,19,4Zm0,38a6,6,0,0,1-3-11.19V9a3,3,0,0,1,6,0V30.81A6,6,0,0,1,19,42ZM19,8a1,1,0,0,0-1,1V31.42a1,1,0,0,1-.6.92,4,4,0,1,0,3.2,0,1,1,0,0,1-.6-.92V9A1,1,0,0,0,19,8ZM39,2H28V4H39ZM35,6H28V8h7Zm4,4H28v2H39Zm-4,4H28v2h7Zm4,4H28v2H39Zm-4,4H28v2h7ZM20,35H18v2h2Z" data-name="30 Temperature, Celsius, Degrees, Fahrenheit"/></svg>