<svg xmlns="http://www.w3.org/2000/svg" viewBox="0 0 32 32"><g data-name="Layer 2"><path d="M17.45 30.7a2.82 2.82 0 0 1-2.2-2.8V18.25h1.5V28a1.25 1.25 0 0 0 2.5 0V26.75A.75.75 0 0 1 20 26h0a.75.75 0 0 1 .75.75V28A2.75 2.75 0 0 1 17.45 30.7zM16.75 6h-1.5V2.75A.75.75 0 0 1 16 2h0a.75.75 0 0 1 .75.75z"/><path d="M27,20.75a1.73,1.73,0,0,1-1.39-.69A1.79,1.79,0,0,0,24,19.13a3,3,0,0,0-2.06.82,2.81,2.81,0,0,1-3.89,0,3.07,3.07,0,0,0-4.18.06,2.54,2.54,0,0,1-3.67-.14,2.94,2.94,0,0,0-2.21-1c-.77,0-1,.24-1.51,1A1.74,1.74,0,0,1,3.25,19V18.4A13,13,0,0,1,15.76,5.25h0A12.75,12.75,0,0,1,28.75,18v1A1.74,1.74,0,0,1,27,20.75Zm-3-3.12a3.27,3.27,0,0,1,2.83,1.54.25.25,0,0,0,.42-.15V18A11.25,11.25,0,0,0,15.79,6.75h0a11.51,11.51,0,0,0-11,11.65V19a.25.25,0,0,0,.45.12A3,3,0,0,1,8,17.38a4.48,4.48,0,0,1,3.33,1.49,1,1,0,0,0,1.49.08,4.49,4.49,0,0,1,6.27-.09,1.28,1.28,0,0,0,1.83,0A4.47,4.47,0,0,1,24,17.63Z"/><path d="M11.35,20.07c0-.42-.92-10.22,4.14-14.64l1,1.13c-4.48,3.9-3.64,13.27-3.64,13.36Z"/><path d="M20.65,20.07l-1.49-.14c0-.09.85-9.46-3.64-13.36l1-1.13C21.58,9.85,20.69,19.66,20.65,20.07Z"/></g></svg>